<?xml version="1.0" encoding="UTF-8"?><svg id="Calque_1" xmlns="http://www.w3.org/2000/svg" viewBox="0 0 2319.38 1000"><defs><style>.cls-1{fill:#10102b;}.cls-2{fill:#635bff;}</style></defs><path class="cls-1" d="M268.37,547.48l-.51,82.31c0,2.72-2.2,4.92-4.92,4.92h-34.2c-2.72,0-4.92-2.2-4.92-4.92v-254.37c0-2.72,2.2-4.92,4.92-4.92h104.28c8.35,0,16.82,1.02,25.42,3.04,8.59,2.03,16.53,6.03,23.81,11.99,7.28,5.97,13.12,14.8,17.54,26.49,4.41,11.7,6.62,27.33,6.62,46.9s-2.27,35.32-6.8,47.26c-4.53,11.94-10.44,21.07-17.72,27.39-.07.06-.15.13-.22.19-9.83,8.47-22.62,12.69-35.59,12.84l-77.7.88ZM267.85,506.41c0,1.86,1.51,3.37,3.37,3.37h56.06c6.92,0,13.01-1.61,18.26-4.83,5.25-3.22,9.31-8.47,12.17-15.75,2.87-7.28,4.3-17.24,4.3-29.89s-1.5-22.2-4.47-29.36c-2.99-7.16-6.93-12.23-11.82-15.22-4.9-2.98-10.56-4.48-17-4.48h-57.5c-1.86,0-3.37,1.51-3.37,3.37v92.79Z"/><path class="cls-1" d="M488.12,533l-.1,95.32c0,3.53-2.86,6.39-6.39,6.39h-31.25c-3.53,0-6.39-2.86-6.39-6.39v-251.42c0-3.53,2.86-6.39,6.39-6.39h101.01c9.79,0,19.03,1.14,27.75,3.4,8.71,2.27,16.47,6.39,23.27,12.35,6.8,5.97,12.17,14.27,16.11,24.88,3.93,10.62,5.9,24.41,5.9,41.35,0,13.13-1.31,24.05-3.93,32.76-2.63,8.72-6.09,15.81-10.39,21.3-4.3,5.49-9.13,9.73-14.5,12.71-5.37,2.99-10.69,5.43-15.94,7.34l46.55,99c1.99,4.24-1.1,9.12-5.79,9.12h-30.55c-2.51,0-4.8-1.47-5.83-3.77l-44.13-97.91h-11.63l-40.18-.05ZM488.02,491.04c0,3.62,2.94,6.56,6.56,6.56h49.28c5.25,0,10.03-.65,14.32-1.97,4.3-1.31,8.11-3.63,11.45-6.98,3.34-3.34,5.91-7.88,7.7-13.6,1.79-5.73,2.69-13.12,2.69-22.2s-.9-16.05-2.69-21.66c-1.79-5.6-4.36-9.9-7.7-12.89-3.34-2.98-7.22-5.07-11.63-6.27-4.42-1.19-9.13-1.79-14.14-1.79h-49.28c-3.62,0-6.56,2.94-6.56,6.56v74.23Z"/><path class="cls-1" d="M765.47,636.86c-17.66,0-33.11-1.73-46.36-5.19-13.25-3.46-24.35-9.78-33.3-18.98-8.95-9.18-15.63-22.61-20.05-40.28-4.42-17.66-6.62-40.69-6.62-69.1s2.26-51.85,6.8-69.63c4.53-17.78,11.28-31.38,20.23-40.81,8.95-9.42,20.05-15.93,33.3-19.51,13.25-3.58,28.58-5.37,46-5.37s33.53,1.79,46.9,5.37c13.36,3.58,24.46,10.09,33.29,19.51,8.83,9.43,15.45,23.04,19.87,40.81,4.41,17.78,6.62,40.99,6.62,69.63s-2.21,51.44-6.62,69.1c-4.42,17.67-11.1,31.09-20.05,40.28-8.95,9.19-20.05,15.52-33.3,18.98-13.25,3.46-28.82,5.19-46.72,5.19ZM765.47,597.13c11.69,0,21.54-1.25,29.53-3.76,7.99-2.51,14.38-7.04,19.15-13.6,4.77-6.56,8.23-15.99,10.39-28.28,2.15-12.29,3.22-28.34,3.22-48.15,0-21-1.13-37.77-3.4-50.3-2.27-12.53-5.79-22.07-10.56-28.64-4.77-6.56-11.1-10.97-18.97-13.25-7.88-2.26-17.67-3.4-29.36-3.4-10.98,0-20.4,1.14-28.28,3.4-7.88,2.27-14.26,6.69-19.15,13.25-4.9,6.57-8.54,16.11-10.92,28.64-2.39,12.53-3.58,29.3-3.58,50.3,0,19.81,1.01,35.86,3.04,48.15,2.03,12.29,5.43,21.72,10.2,28.28,4.77,6.57,11.15,11.1,19.15,13.6,7.99,2.51,17.84,3.76,29.53,3.76Z"/><path class="cls-1" d="M1078.97,370.5c3.04.82,5.13,3.57,5.13,6.72v25.37c0,4.24-2.87,7.51-7.07,6.87l-63.38.37c-10.98,0-21.14-.83-28.9,1.68-7.76,2.51-14.02,7.1-18.79,13.78-4.78,6.68-8.23,16.23-10.39,28.64-2.15,12.41-3.22,28.52-3.22,48.33s1.01,35.57,3.04,47.97c2.03,12.41,5.24,22.02,9.67,28.82,4.41,6.8,10.5,11.52,18.26,14.14,7.75,2.63,17.48,3.94,29.18,3.94,17.9,0,32.57-.18,44.06-.44,7.71-.18,14.71,0,19.88-.08,4.13-.06,7.66,2.78,7.66,6.91v25.8c0,3.14-2.03,6.34-5.15,6.71-5.35.63-10.02,0-17.59,0-8.59,0-15.49.09-26.81,0-9.7-.08-21.5.12-32.72.12-15.52,0-28.17-1.07-39.99-4.64-11.81-3.58-21.72-10.14-29.71-19.69-8-9.54-14.03-23.15-18.08-40.81-4.06-17.66-6.08-40.81-6.08-69.45,0-26.97,2.09-49.17,6.27-66.59,4.17-17.42,10.38-31.02,18.62-40.81,8.23-9.78,18.31-16.59,30.25-20.41,11.93-3.82,26.27-3.77,41.55-3.77,10.5,0,18.97-.17,29.87-.17"/><path class="cls-1" d="M1286.21,370.2c2.33.16,4.1,2.11,4.1,4.44v30.58c0,2.46-1.99,4.45-4.45,4.45h-95.44c-8.12,0-14.5,2.03-19.15,6.08-4.65,4.06-6.98,12.04-6.98,20.63v46.9h105.69c2.42.04,4.34,2.02,4.34,4.43l-.12,30.38c0,2.42-1.93,4.39-4.34,4.44l-105.56.47v45.47c0,7.16,1.25,12.65,3.76,16.47,2.51,3.82,5.73,6.44,9.67,7.87,3.93,1.43,8.05,2.15,12.35,2.15h95.79c2.46,0,4.45,1.99,4.45,4.45v31c0,2.31-1.74,4.24-4.04,4.43-9.38.8-19.48.47-30.33.47l-93.62-.43c-7.04-1.07-13.78-3.46-20.23-7.16-6.44-3.7-11.7-9.25-15.75-16.65-4.06-7.39-6.09-17.54-6.09-30.43v-152.51c0-11.21,1.67-20.58,5.01-28.1,3.34-7.52,7.82-13.43,13.43-17.72,5.61-4.3,11.81-7.34,18.62-9.13,6.8-1.79,13.54-2.69,20.23-2.69l108.67-.31Z"/><path class="cls-1" d="M1332.9,625.58v-245.93c0-5.05,4.09-9.14,9.14-9.14h100.06c17.18,0,31.56,3.04,43.14,9.13,11.57,6.09,20.82,14.92,27.74,26.49,6.92,11.58,11.87,25.48,14.86,41.71,2.98,16.23,4.48,34.49,4.48,54.77,0,29.12-3.35,53.4-10.03,72.85-6.68,19.45-16.71,34.19-30.07,44.21-13.37,10.03-30.07,15.04-50.12,15.04h-100.06c-5.05,0-9.14-4.09-9.14-9.14ZM1376.94,585.84c0,5.05,4.09,9.14,9.14,9.14h51.72c12.17,0,21.89-3.58,29.18-10.74,7.27-7.16,12.65-17.66,16.11-31.51,3.46-13.84,5.19-30.55,5.19-50.12,0-18.14-1.07-33.17-3.22-45.11-2.15-11.93-5.25-21.36-9.31-28.28-4.06-6.92-9.25-11.81-15.57-14.68-6.33-2.86-13.78-4.3-22.37-4.3h-51.72c-5.05,0-9.14,4.09-9.14,9.14v166.45Z"/><path class="cls-2" d="M1564.02,635.37c-3.79,0-5.69-1.79-5.69-5.38v-28.42c0-3.14,2.54-5.68,5.68-5.68h21.24c3.14,0,5.69,2.55,5.69,5.69v28.42c0,2-.55,3.39-1.65,4.19-1.1.8-2.44,1.2-4.04,1.2h-21.24Z"/><path class="cls-2" d="M1616.79,627.8l75.66-232.65c5.2-15.99,20.1-26.81,36.91-26.81h0c16.81,0,31.71,10.82,36.91,26.81l75.66,232.65c1.17,3.59-1.51,7.27-5.28,7.27h-34.94c-2.41,0-4.54-1.55-5.28-3.83l-18.13-55.66c-.73-2.24-2.82-3.75-5.17-3.75h-88.58c-2.36,0-4.46,1.53-5.18,3.78l-17.79,55.61c-.74,2.3-2.88,3.86-5.29,3.86h-34.2c-3.77,0-6.45-3.68-5.28-7.27ZM1696.61,531.7h64.03c2.78,0,4.77-2.68,3.97-5.34l-31.08-103.39c-1.46-4.86-8.35-4.86-9.81,0l-31.08,103.39c-.8,2.66,1.19,5.34,3.97,5.34Z"/><path class="cls-2" d="M1849.24,395.23l-2.15-10.23c-1.9-9.04,6.85-21.11,18.72-23.72,11.27-2.48,25.35,3,27.45,12.97l2.42,11.47c.65,3.11-1.33,6.16-4.44,6.81l-34.73,7.43c-3.31.7-6.57-1.42-7.27-4.74Z"/><path class="cls-2" d="M1900.13,405.31l2.5,11.72,23.29,110.39,9.49,45.03-46.75,9.86-35.28-167.13c-.64-3.07,1.33-6.06,4.37-6.69l35.69-7.55c3.04-.63,6.02,1.34,6.69,4.37Z"/><path class="cls-2" d="M1928.94,631.97c-.35,2.31-2.12,4.17-4.41,4.65-2.3.49-4.65-.5-5.92-2.48l-25.11-43.39,42.57-8.97-7.13,50.19Z"/><path class="cls-2" d="M2084.51,617.19l-121.7-.39c-6.11,0-11.07,4.93-11.08,11.05,0,6.11,4.93,11.07,11.05,11.08l121.7.39c6.11,0,11.07-4.93,11.08-11.05,0-6.11-4.93-11.07-11.05-11.08Z"/></svg>